<svg xmlns="http://www.w3.org/2000/svg" viewBox="0 0 512 512"><path d="M406.261 244.87v244.87c0 12.295-10.631 22.261-23.745 22.261H73.832c-13.114 0-23.745-9.966-23.745-22.261V244.87h356.174z" fill="#a5a8a0"/><path d="M406.261 456.348H50.087c-12.295 0-22.261-9.966-22.261-22.261V55.652c0-12.295 9.966-22.261 22.261-22.261h356.174c12.295 0 22.261 9.966 22.261 22.261v378.435c0 12.295-9.966 22.261-22.261 22.261z" fill="#d2d6ce"/><path d="M217.043 133.565a8.349 8.349 0 0 1-8.348 8.348H75.13a8.349 8.349 0 0 1 0-16.696h133.565a8.348 8.348 0 0 1 8.348 8.348zm-52.869 80.696H75.13a8.349 8.349 0 0 0 0 16.696h89.043a8.349 8.349 0 0 0 .001-16.696zm34.504 0h-1.113a8.349 8.349 0 0 0 0 16.696h1.113a8.349 8.349 0 0 0 0-16.696zm-34.504 44.522H75.13a8.349 8.349 0 0 0 0 16.696h89.043a8.349 8.349 0 0 0 .001-16.696zm0 44.521H75.13a8.349 8.349 0 0 0 0 16.696h89.043a8.349 8.349 0 0 0 .001-16.696zm34.504 0h-1.113a8.349 8.349 0 0 0 0 16.696h1.113a8.349 8.349 0 0 0 0-16.696zm-34.504 44.522H75.13a8.349 8.349 0 0 0 0 16.696h89.043a8.349 8.349 0 0 0 .001-16.696zm0 44.522H75.13a8.349 8.349 0 0 0 0 16.696h89.043a8.349 8.349 0 0 0 .001-16.696zm34.504-44.522h-1.113a8.349 8.349 0 0 0 0 16.696h1.113a8.349 8.349 0 0 0 0-16.696zm150.818-89.043h-89.043a8.349 8.349 0 0 0 0 16.696h89.043a8.349 8.349 0 0 0 0-16.696zm0 44.521h-89.043a8.349 8.349 0 0 0 0 16.696h89.043a8.349 8.349 0 0 0 0-16.696zm33.391-27.826H384a8.349 8.349 0 0 0 0-16.696h-1.113a8.349 8.349 0 0 0 0 16.696zm-33.391 72.348h-89.043a8.349 8.349 0 0 0 0 16.696h89.043a8.349 8.349 0 0 0 0-16.696zm0 44.522h-89.043a8.349 8.349 0 0 0 0 16.696h89.043a8.349 8.349 0 0 0 0-16.696zM384 347.826h-1.113a8.349 8.349 0 0 0 0 16.696H384a8.349 8.349 0 0 0 0-16.696z" fill="#a5a8a0"/><path d="M161.391 66.783H94.609c-12.295 0-22.261-9.966-22.261-22.261V22.261C72.348 9.966 82.314 0 94.609 0h66.783c12.295 0 22.261 9.966 22.261 22.261v22.261c-.001 12.294-9.967 22.261-22.262 22.261z" fill="#474747"/><path d="M150.261 33.391H83.478c-6.147 0-11.13-4.983-11.13-11.13C72.348 9.966 82.314 0 94.609 0h44.522c12.295 0 22.261 9.966 22.261 22.261-.001 6.147-4.984 11.13-11.131 11.13z" fill="#656663"/><path d="M372.87 0c61.471 0 111.304 49.833 111.304 111.304S434.341 222.609 372.87 222.609s-111.304-49.833-111.304-111.304S311.398 0 372.87 0z" fill="#ff5200"/><path d="M372.87 22.261c49.178 0 89.043 39.866 89.043 89.043s-39.866 89.043-89.043 89.043-89.043-39.866-89.043-89.043 39.865-89.043 89.043-89.043z" fill="#c00"/><path d="M380.939 76.06c-3.161-10.542-12.681-17.625-23.688-17.625h-3.268c-11.007 0-20.527 7.083-23.689 17.625l-21.073 70.244a8.348 8.348 0 0 0 5.596 10.395c4.417 1.328 9.07-1.181 10.395-5.596l8.046-26.819h44.718l8.046 26.819a8.352 8.352 0 0 0 7.993 5.951 8.347 8.347 0 0 0 7.998-10.749L380.939 76.06zm-42.672 31.527l8.019-26.73a7.986 7.986 0 0 1 7.698-5.727h3.268a7.99 7.99 0 0 1 7.698 5.728l8.019 26.73h-34.702v-.001zm115.298.156a8.349 8.349 0 0 1-8.348 8.348h-7.012v7.012a8.349 8.349 0 0 1-16.696 0v-7.012h-7.012a8.349 8.349 0 0 1 0-16.696h7.012v-7.012a8.349 8.349 0 0 1 16.696 0v7.012h7.012a8.347 8.347 0 0 1 8.348 8.348z" fill="#fff"/></svg>