<svg xmlns="http://www.w3.org/2000/svg" viewBox="0 0 503.467 503.467"><path d="M448.213 328.533l-.853.853c-8.533-3.413-17.067-.853-23.893 6.827L406.4 353.28l-86.187 86.187L311.68 448v51.2h-256c-18.773 0-34.133-15.36-34.133-34.133V38.4c0-18.773 15.36-34.133 34.133-34.133h273.067V89.6c0 18.773 15.36 34.133 34.133 34.133h85.333v204.8z" fill="#f2edda"/><path d="M448.213 123.733H362.88c-18.773 0-34.133-15.36-34.133-34.133V4.267l119.466 119.466z" fill="#aab1ba"/><path d="M432 378.88l-86.187 86.187-25.6-25.6L406.4 353.28l25.6 25.6zm25.6 25.6l-86.187 86.187-25.6-25.6L432 378.88l25.6 25.6z" fill="#80d6fa"/><path d="M106.88 209.067h51.2v-51.2h-51.2v51.2zm0 204.8h51.2v-51.2h-51.2v51.2z" fill="#ffd0a1"/><path d="M474.667 353.28c10.24 10.24 10.24 23.893 0 34.133L457.6 404.48l-25.6-25.6-25.6-25.6 17.067-17.067c6.827-6.827 16.213-9.387 24.747-6.827 3.413.853 6.827 3.413 9.387 6.827l17.066 17.067z" fill="#ff7474"/><path fill="#e4f2de" d="M371.413 490.667l-8.533 8.533h-51.2V448l8.533-8.533 25.6 25.6z"/><path d="M362.88 503.467h-51.2c-2.56 0-4.267-1.707-4.267-4.267V448c0-.853.853-2.56.853-3.413L420.053 332.8c5.973-5.973 12.8-8.533 19.627-8.533 7.68 0 14.507 3.413 20.48 8.533l17.067 17.067c11.947 11.947 11.947 28.16 0 40.107L365.44 501.76c0 .853-1.707 1.707-2.56 1.707zm-46.933-8.534h45.227l4.267-4.267-45.227-45.227-4.267 4.267v45.227zm35.84-29.866l19.627 19.627 80.213-80.213L432 384.853l-80.213 80.214zm-25.6-25.6l19.627 19.627 80.213-80.213-19.627-19.628-80.213 80.214zm86.186-86.187l45.227 45.227 13.653-13.653c4.267-4.267 6.827-9.387 6.827-13.653 0-5.12-2.56-10.24-6.827-14.507l-17.067-17.067c-8.533-8.533-19.627-8.533-28.16 0l-13.653 13.653zM277.547 503.467H55.68c-21.333 0-38.4-17.067-38.4-38.4V38.4C17.28 17.067 34.347 0 55.68 0h273.067c.853 0 2.56.853 3.413.853l85.333 85.333c1.707 1.707 1.707 4.267 0 5.973s-4.267 1.707-5.973 0L327.04 7.68H55.68c-16.213 0-29.867 13.653-29.867 29.867v426.667c0 16.213 13.653 29.867 29.867 29.867h221.867c2.56 0 4.267 1.707 4.267 4.267-.001 2.559-1.707 5.119-4.267 5.119zm0-85.334H209.28c-2.56 0-4.267-1.707-4.267-4.267 0-2.56 1.707-4.267 4.267-4.267h68.267c2.56 0 4.267 1.707 4.267 4.267-.001 2.561-1.707 4.267-4.267 4.267zm-119.467 0h-51.2c-2.56 0-4.267-1.707-4.267-4.267v-51.2c0-2.56 1.707-4.267 4.267-4.267h51.2c2.56 0 4.267 1.707 4.267 4.267v51.2c0 2.561-1.707 4.267-4.267 4.267zm-46.933-8.533h42.667v-42.667h-42.667V409.6zm217.6-42.667H311.68c-2.56 0-4.267-1.707-4.267-4.267s1.707-4.267 4.267-4.267h17.067c2.56 0 4.267 1.707 4.267 4.267s-1.707 4.267-4.267 4.267zm-51.2 0H209.28c-2.56 0-4.267-1.707-4.267-4.267s1.707-4.267 4.267-4.267h68.267c2.56 0 4.267 1.707 4.267 4.267s-1.707 4.267-4.267 4.267zm-153.6-51.2c-.853 0-2.56-.853-3.413-.853l-17.067-17.067c-1.707-1.707-1.707-4.267 0-5.973 1.707-1.707 4.267-1.707 5.973 0l13.653 13.653 31.573-46.933c1.707-1.707 4.267-2.56 5.973-.853 1.707 1.707 2.56 4.267.853 5.973l-34.133 51.2c-.852 0-1.706.853-3.412.853zm238.933 0h-51.2c-2.56 0-4.267-1.707-4.267-4.267 0-2.56 1.707-4.267 4.267-4.267h51.2c2.56 0 4.267 1.707 4.267 4.267 0 2.561-1.707 4.267-4.267 4.267zm-85.333 0H209.28c-2.56 0-4.267-1.707-4.267-4.267 0-2.56 1.707-4.267 4.267-4.267h68.267c2.56 0 4.267 1.707 4.267 4.267-.001 2.561-1.707 4.267-4.267 4.267zm170.666-17.066c-2.56 0-4.267-1.707-4.267-4.267V128H362.88c-21.333 0-38.4-17.067-38.4-38.4V46.933c0-2.56 1.707-4.267 4.267-4.267s4.267 1.707 4.267 4.267V89.6c0 16.213 13.653 29.867 29.867 29.867h85.333c2.56 0 4.267 1.707 4.267 4.267V294.4c-.001 2.56-1.708 4.267-4.268 4.267zm-102.4-34.134H260.48c-2.56 0-4.267-1.707-4.267-4.267 0-2.56 1.707-4.267 4.267-4.267h85.333c2.56 0 4.267 1.707 4.267 4.267 0 2.561-1.707 4.267-4.267 4.267zm-119.466 0H209.28c-2.56 0-4.267-1.707-4.267-4.267 0-2.56 1.707-4.267 4.267-4.267h17.067c2.56 0 4.267 1.707 4.267 4.267-.001 2.561-1.707 4.267-4.267 4.267zm136.533-51.2h-68.267c-2.56 0-4.267-1.707-4.267-4.267 0-2.56 1.707-4.267 4.267-4.267h68.267c2.56 0 4.267 1.707 4.267 4.267 0 2.561-1.707 4.267-4.267 4.267zm-102.4 0h-51.2c-2.56 0-4.267-1.707-4.267-4.267 0-2.56 1.707-4.267 4.267-4.267h51.2c2.56 0 4.267 1.707 4.267 4.267 0 2.561-1.707 4.267-4.267 4.267zm-102.4 0h-51.2c-2.56 0-4.267-1.707-4.267-4.267v-51.2c0-2.56 1.707-4.267 4.267-4.267h51.2c2.56 0 4.267 1.707 4.267 4.267v51.2c0 2.561-1.707 4.267-4.267 4.267zm-46.933-8.533h42.667v-42.667h-42.667V204.8zm183.466-42.667H209.28c-2.56 0-4.267-1.707-4.267-4.267 0-2.56 1.707-4.267 4.267-4.267h85.333c2.56 0 4.267 1.707 4.267 4.267 0 2.561-1.707 4.267-4.267 4.267z" fill="#51565f"/></svg>