<svg xmlns="http://www.w3.org/2000/svg" viewBox="0 0 482.485 482.485"><path d="M469.835 96.075h-54.814l-2.409 24.094h42.767v248.169H26.504V120.169h42.767l-2.409-24.094H12.047C5.421 96.075 0 100.894 0 106.918v301.779c0 6.024 5.421 10.842 12.047 10.842h458.391c6.626 0 12.047-4.819 12.047-10.842V106.918c-.603-5.422-6.024-10.843-12.65-10.843z" fill="#3a556a"/><path fill="#ebf0f3" d="M455.379 368.339v-248.17h-42.165l-23.492 248.17z"/><path fill="#2f4859" d="M413.214 120.169l2.41-24.094H66.259l2.409 24.094z"/><path fill="#e1e6e9" d="M92.16 368.339h297.562l23.492-248.17H68.668z"/><path d="M92.16.301h297.562v368.038H92.16zM26.504 120.169v248.17H92.16l-23.492-248.17z" fill="#ebf0f3"/><path d="M152.998 49.092h-37.346c-1.205 0-2.409 1.205-2.409 3.012v18.673c0 1.807 1.205 3.012 2.409 3.012h37.346c1.205 0 2.409-1.205 2.409-3.012V51.501c.602-1.205-.602-2.409-2.409-2.409z" fill="#fcd462"/><path d="M206.607 49.092h-37.346c-1.205 0-2.409 1.205-2.409 3.012v18.673c0 1.807 1.205 3.012 2.409 3.012h37.346c1.205 0 2.409-1.205 2.409-3.012V51.501c0-1.205-1.204-2.409-2.409-2.409z" fill="#e56353"/><path d="M259.614 49.092h-37.346c-1.205 0-2.409 1.205-2.409 3.012v18.673c0 1.807 1.205 3.012 2.409 3.012h37.346c1.205 0 2.409-1.205 2.409-3.012V51.501c.001-1.205-1.204-2.409-2.409-2.409z" fill="#44c4a1"/><path d="M313.224 49.092h-37.346c-1.205 0-2.409 1.205-2.409 3.012v18.673c0 1.807 1.205 3.012 2.409 3.012h37.346c1.205 0 2.409-1.205 2.409-3.012V51.501c0-1.205-1.205-2.409-2.409-2.409z" fill="#27a2db"/><path d="M366.231 49.092h-37.346c-1.205 0-2.409 1.205-2.409 3.012v18.673c0 1.807 1.205 3.012 2.409 3.012h37.346c1.205 0 2.409-1.205 2.409-3.012V51.501c0-1.205-1.205-2.409-2.409-2.409zM92.16 82.824h297.562v105.412H92.16z" fill="#64798a"/><path d="M115.049 144.264l-7.228-8.433 7.228-8.433 3.012 3.614-4.216 4.819 4.216 4.818zm251.784 0l7.228-8.433-7.228-8.433-3.012 3.614 4.217 4.819-4.217 4.818z" fill="#ebf0f3"/><path fill="#fcd462" d="M113.242 198.475h74.692v75.896h-74.692z"/><path fill="#44c4a1" d="M203.595 198.475h74.692v75.896h-74.692z"/><path fill="#e56353" d="M293.948 198.475h74.692v75.896h-74.692z"/><path fill="#f6c358" d="M113.242 264.132h74.692v10.24h-74.692z"/><path fill="#3ea69b" d="M203.595 264.132h74.692v10.24h-74.692z"/><path fill="#d15241" d="M293.948 264.132h74.692v10.24h-74.692z"/><path d="M113.242 297.261h74.692v10.24h-74.692zm90.353 0h74.692v10.24h-74.692zm90.353 0h74.692v10.24h-74.692zm-180.706 30.118h37.346v10.24h-37.346zm90.353 0h29.515v10.24h-29.515zm90.353 0h37.346v10.24h-37.346z" fill="#e1e6e9"/><path fill="#64798a" d="M92.16.301h297.562v39.153H92.16z"/><path fill="#ebf0f3" d="M109.707 9.758h174.08v19.878h-174.08z"/><ellipse cx="304.188" cy="20.179" rx="10.842" ry="10.24" fill="#fcd462"/><ellipse cx="332.499" cy="20.179" rx="10.842" ry="10.24" fill="#44c4a1"/><ellipse cx="360.809" cy="20.179" rx="10.842" ry="10.24" fill="#e56353"/><g fill="#2f4859"><ellipse cx="240.941" cy="393.035" rx="18.673" ry="16.866"/><path d="M148.179 420.141h184.922v35.539H148.179z"/></g><path fill="#64798a" d="M333.704 455.68H148.179l185.525-35.539z"/><path d="M371.049 455.078H110.833c-4.819 0-9.035 3.614-9.035 8.433v18.673h278.889v-18.673c0-4.819-4.216-8.433-9.638-8.433z" fill="#3a556a"/></svg>