<svg xmlns="http://www.w3.org/2000/svg" viewBox="0 0 512 512"><radialGradient id="a" cx="256" cy="258" r="256" gradientTransform="matrix(1 0 0 -1 0 514)" gradientUnits="userSpaceOnUse"><stop offset=".005" stop-color="#e87e04"/><stop offset="1" stop-color="#d55400"/></radialGradient><circle cx="256" cy="256" r="256" fill="url(#a)"/><path d="M411.166 99h-146.15c-4.57-.219-7.641-.059-8.526 0h-.649c-.863-.057-3.843-.206-8.271 0H100.166c-2.762 0-5 2.238-5 5s2.238 5 5 5h106.648c-7.844 3.715-15.812 8.77-23.234 15.648-22.172 20.554-33.414 51.751-33.414 92.727 0 2.762 2.238 5 5 5s5-2.238 5-5c0-38.022 10.135-66.726 30.125-85.312 20.516-19.076 46.505-22.538 58.45-23.062h15.013c12.016.532 37.865 4.013 58.292 22.982 19.985 18.561 30.12 47.249 30.12 85.268 0 2.762 2.238 5 5 5s5-2.238 5-5c0-40.975-11.242-72.159-33.414-92.687-7.383-6.836-15.309-11.863-23.113-15.563h105.527a5 5 0 1 0 0-10.001z" fill="#2a3e4f"/><path d="M275 118a5 5 0 0 1-5 5h-29a5 5 0 0 1-5-5V89a5 5 0 0 1 5-5h29a5 5 0 0 1 5 5v29z" fill="#32495d"/><g fill="#32495d"><circle cx="413.5" cy="103.666" r="16.334"/><circle cx="98.5" cy="103.666" r="16.334"/></g><path d="M175 233a5 5 0 0 1-5 5h-29a5 5 0 0 1-5-5v-29a5 5 0 0 1 5-5h29a5 5 0 0 1 5 5v29zm201 0a5 5 0 0 1-5 5h-29a5 5 0 0 1-5-5v-29a5 5 0 0 1 5-5h29a5 5 0 0 1 5 5v29z" fill="#32495d"/><path d="M223 398v111.888c11 1.391 21.817 2.112 33 2.112 11.529 0 23-.775 34-2.252V398h-67z" fill="#32acfc"/><path d="M255 511.987s.666.013 1 .013c11.529 0 23-.775 34-2.252V398h-35v113.987z" fill="#2c97de"/><path opacity=".4" fill="#2a3e4f" d="M223 398h67v16h-67z"/><path d="M251.434 362.623s-12.102-5.419-12.102-14.624c0-7.463 9.615-12.972 9.615-12.972 2.229-1.611 4.053-5.18 4.053-7.93V191.11c0-.17-.857-.305-1.307-.405a8.383 8.383 0 0 0-1.82-.204c-4.625 0-10.375 3.75-10.375 8.375a8.354 8.354 0 0 0 3.12 6.517l-51.145 98.175c-1.27 2.439-1.549 6.553-.622 9.141 0 0 27.979 77.96 27.979 78.293s32.167.045 32.167.045C253.748 391.02 256 388.75 256 386v-16.334c0-2.75-2.055-5.92-4.566-7.043z" fill="#ecf0f1"/><path d="M260.564 362.623s12.105-5.419 12.105-14.624c0-7.463-10.618-12.972-10.618-12.972-2.227-1.611-4.052-5.18-4.052-7.93V191.11c1-.17.857-.305 1.307-.405a8.399 8.399 0 0 1 1.821-.204c4.624 0 11.376 3.75 11.376 8.375a8.357 8.357 0 0 1-3.123 6.517l51.146 98.175c1.27 2.439 1.55 6.553.621 9.141 0 0-27.977 77.96-27.977 78.293s-32.169.045-32.169.045C258.252 391.02 256 388.75 256 386v-16.334c0-2.75 2.055-5.92 4.564-7.043z" fill="#bdc3c7"/><path d="M216.331 387c-4.604 0-8.334 3.896-8.334 8.5 0 4.602 3.73 8.5 8.334 8.5H255v-17h-38.669z" fill="#32acfc"/><path d="M292.997 387H255v17h37.997c4.601 0 8.334-3.898 8.334-8.5 0-4.604-3.733-8.5-8.334-8.5z" fill="#2c97de"/></svg>