<svg xmlns="http://www.w3.org/2000/svg" viewBox="0 0 504.065 504.065"><path d="M41.493 281.6l45.686-79.951c4.726-8.271 15.36-11.028 23.631-6.302l337.132 196.529c8.271 4.726 11.028 15.36 6.302 23.631l-45.686 79.951c-4.726 8.271-15.36 11.028-23.631 6.302L47.794 305.231c-8.271-4.726-11.027-15.36-6.301-23.631z" fill="#bf392b"/><path d="M87.573 203.225l-.788-.788-9.058 16.148 258.757 230.794L87.573 203.225z" fill="#ac3327"/><path d="M408.557 495.458l45.686-79.951c4.726-8.271 1.969-18.905-6.302-23.631L341.21 329.649l-66.56 107.914 110.277 64.197c8.27 4.726 18.904 1.969 23.63-6.302z" fill="#d6d6d6"/><path d="M293.554 406.843l-1.969 2.757 44.505 39.778-42.536-42.535z" fill="#cacaca"/><path d="M87.573 179.2l64.591-64.197c6.695-6.695 17.723-6.695 24.418 0l274.905 272.148c6.695 6.695 6.695 17.329 0 24.025l-64.591 64.197c-6.695 6.695-17.723 6.695-24.418 0L87.573 203.225c-6.696-6.696-6.696-17.33 0-24.025z" fill="#e2574c"/><path d="M147.831 119.335l-14.966 14.572 173.292 259.938-158.326-274.51z" fill="#cb4e44"/><path d="M451.486 411.175c6.695-6.695 6.695-17.329 0-24.025l-93.342-92.16-89.797 87.04 94.129 93.342c6.695 6.695 17.723 6.695 24.418 0 .002 0 64.592-64.197 64.592-64.197z" fill="#e0e0e0"/><path d="M154.133 95.705l79.951-46.08c8.271-4.726 18.905-1.969 23.631 6.302L453.85 396.209c4.726 8.271 1.969 18.905-6.302 23.631l-79.951 46.08c-8.271 4.726-18.905 1.969-23.631-6.302L147.831 119.335c-4.726-8.27-1.969-18.904 6.302-23.63z" fill="#d07c40"/><path d="M288.04 362.732l-1.575 1.575 19.692 29.538-18.117-31.113z" fill="#d1d1d1"/><path d="M367.991 466.314l79.951-46.08c8.271-4.726 11.028-15.36 6.302-23.631l-68.529-118.942-108.308 66.954 66.56 115.397c5.12 8.271 15.753 11.028 24.024 6.302z" fill="#ebebeb"/><path d="M240.779 56.714a19.192 19.192 0 0 1 0-9.452c-2.363.394-4.332 1.182-6.695 2.363l-16.148 9.452L329 382.031 240.779 56.714zm126.424 382.818h.788v-.394l-.788.394z" fill="#bb6f39"/><path d="M367.203 439.532h.788v-.394l-.788.394zm-54.35-116.972l-3.545 2.363L329 382.031l-16.147-59.471z" fill="#dbdbdb"/><path d="M252.594 35.84l89.009-23.631c9.058-2.363 18.511 2.757 21.268 11.815L464.09 395.815c2.363 9.058-3.151 18.511-12.209 20.874l-89.009 23.631c-9.058 2.363-18.511-2.757-21.268-11.815L240.779 56.714c-2.757-9.059 2.757-18.511 11.815-20.874z" fill="#f4b459"/><path d="M362.871 0h81.526c11.422 0 20.48 9.058 20.48 20.48v384.394c0 11.422-9.058 20.48-20.48 20.48h-81.526c-11.422 0-20.48-9.058-20.48-20.48V20.48c0-11.422 9.059-20.48 20.48-20.48z" fill="#efc75e"/><path d="M308.52 306.806l33.083 121.698c2.363 9.058 11.815 14.572 21.268 11.815l89.009-23.631c9.059-2.363 14.572-11.815 12.209-20.874l-33.083-120.123-122.486 31.115z" fill="#e6e6e6"/><path d="M342.391 20.48c0-3.151.788-5.908 1.969-8.271-.788 0-1.969 0-2.757.394l-20.874 5.514 21.662 313.895V20.48z" fill="#dba250"/><path d="M342.391 275.298v129.575c0 11.422 9.058 20.48 20.48 20.48h81.526c11.422 0 20.48-9.058 20.48-20.48V275.298H342.391z" fill="#efefef"/><path d="M342.391 298.142l-2.363.788 2.363 33.083v-33.871z" fill="#ddd"/><path d="M362.083 295.385v19.692h66.954v-19.692h-66.954zm0 102.4h27.569V385.97h-27.569v11.815zm0-27.57h27.569V358.4h-27.569v11.815zm0-27.569h27.569v-11.815h-27.569v11.815zm68.924 35.446c5.514 0 9.846 4.332 9.846 9.846s-4.332 9.846-9.846 9.846-9.846-4.332-9.846-9.846c-.001-5.513 4.332-9.846 9.846-9.846z" fill="#bfbfbf"/></svg>