<svg xmlns="http://www.w3.org/2000/svg" viewBox="0 0 56 56"><path d="M24 29.5h8c0-2-1.346-3.146-3-3.146-.552 0-1-.521-1-1.073 0-1.654-1.346-3.037-3-3.037-.29 0-.574.025-.847.105a.947.947 0 0 1-.128.472.997.997 0 0 1-.649.458C21.999 23.57 21 24.948 21 26.356c0 1.654 1.346 3.144 3 3.144z" fill="#66cedb"/><path d="M29.916 24.438C32.237 24.869 34 26.5 34 29.5h11a1 1 0 0 1 1 1c0 1.654 1.346 3 3 3h1v-3.292a1 1 0 0 1 1-1c1.654 0 3-1.346 3-3a3.011 3.011 0 0 0-2.376-2.933 1.003 1.003 0 0 1-.754-1.252c.088-.314.13-.573.13-.815 0-1.654-1.346-3-3-3-.226 0-.468.036-.759.113a1 1 0 0 1-1.254-1.006 2.33 2.33 0 0 1 .016-.168C46 15.553 44.654 14.208 43 14.208c-.602 0-1.182.178-1.679.514a1 1 0 0 1-1.505-.498c-.422-1.206-1.554-2.016-2.817-2.016s-2.395.81-2.817 2.016a1 1 0 0 1-1.505.498 2.986 2.986 0 0 0-1.679-.514c-1.654 0-3 1.346-3 3a1 1 0 0 1-1 1c-1.33 0-2.448.876-2.84 2.077.276-.047.556-.004.84-.004 2.446 0 4.486 1.836 4.918 4.157z" fill="#ee8b26"/><path d="M5 37.208a1 1 0 0 1 1 1V41.5h1c1.654 0 3-1.346 3-3a1 1 0 0 1 1-1h21c1.654 0 3-1.492 3-3.146 0-1.408-.999-2.568-2.376-2.859-.056-.013-.101.005-.153.005H24c-2.757 0-5-2.389-5-5.146 0-1.864 1.057-3.606 2.639-4.462-.512-.978-1.523-1.647-2.639-1.647a2.98 2.98 0 0 0-2.817 1.997 1.001 1.001 0 0 1-1.505.484A2.982 2.982 0 0 0 13 22.21c-1.654 0-3 1.345-3 2.999.004-.009.011.046.014.106a.998.998 0 0 1-1.254 1.006 2.944 2.944 0 0 0-.759-.113c-1.654 0-3 1.346-3 3 0 .243.041.502.131.815a1 1 0 0 1-.754 1.252A3.01 3.01 0 0 0 2 34.208c0 1.654 1.346 3 3 3z" fill="#f8cf26"/><path d="M52.98 21.619c.014-.139.02-.275.02-.411 0-2.79-2.294-5.043-5.1-4.999a5.009 5.009 0 0 0-6.69-3.67c-.902-1.428-2.482-2.331-4.21-2.331s-3.308.903-4.21 2.331a5.01 5.01 0 0 0-.79-.223V8.208C32 5.451 29.757 3.5 27 3.5H8c-2.757 0-5 1.951-5 4.708v11.586L1.707 18.5.293 19.914l3 3a.994.994 0 0 0 1.414.001l3-3L6.293 18.5 5 19.793V8.208C5 6.553 6.346 5.5 8 5.5h19c1.654 0 3 1.053 3 2.708v4.109a5.008 5.008 0 0 0-3.916 3.975 5.018 5.018 0 0 0-3.776 3.191A4.963 4.963 0 0 0 19 18.208a4.99 4.99 0 0 0-4.21 2.331 5.009 5.009 0 0 0-6.69 3.67C5.319 24.158 3 26.417 3 29.208c0 .136.006.272.02.411A5.025 5.025 0 0 0 0 34.208a5.008 5.008 0 0 0 4 4.899v3.101c0 .552.448 1.292 1 1.292h2c2.415 0 4.435-2 4.899-4H16v7.708c0 2.756 2.243 5.292 5 5.292h17c2.757 0 5-2.536 5-5.292V36.622l1.293 1.293 1.414-1.415-3-3a.999.999 0 0 0-1.414 0l-3 3 1.414 1.414L41 36.622v10.586c0 1.654-1.346 3.292-3 3.292H21c-1.654 0-3-1.638-3-3.292V39.5h14c2.757 0 5-2.243 5-5 0-1.114-.385-3-1.024-3h8.125c.464 2 2.485 4 4.899 4h2c.552 0 1-.74 1-1.292v-3.101a5.009 5.009 0 0 0 4-4.899 5.025 5.025 0 0 0-3.02-4.589zM24 29.5c-1.654 0-3-1.492-3-3.146 0-1.408.999-2.715 2.376-3.006.271-.058.506-.262.649-.499a1.05 1.05 0 0 0 .128-.5c.273-.08.557-.133.847-.133a3 3 0 0 1 3 2.995c0 .552.448 1.144 1 1.144 1.654 0 3 1.144 3 3.144l-8 .001zm8.624 1.921c1.377.291 2.376 1.598 2.376 3.006 0 1.654-1.346 3.073-3 3.073H11a1 1 0 0 0-1 1c0 1.654-1.346 3-3 3H6v-3.292a1 1 0 0 0-1-1c-1.654 0-3-1.346-3-3 0-1.408.999-2.642 2.376-2.933a1.003 1.003 0 0 0 .754-1.252 2.963 2.963 0 0 1-.13-.815c0-1.654 1.346-3 3-3 .226 0 .468.036.759.113a.999.999 0 0 0 1.254-1.006c-.002-.059-.009-.116-.014-.106 0-1.654 1.346-3 3-3 .602 0 1.182.178 1.679.514a1 1 0 0 0 1.505-.498A2.996 2.996 0 0 1 19 20.209c1.115 0 2.127.633 2.639 1.611-1.582.855-2.639 2.67-2.639 4.534 0 2.757 2.243 5.146 5 5.146h8.471c.052 0 .097-.091.153-.079zM51 29.208a1 1 0 0 0-1 1V33.5h-1c-1.654 0-3-1.346-3-3a1 1 0 0 0-1-1H34c0-3-1.763-4.631-4.084-5.062-.432-2.321-2.472-4.157-4.916-4.157-.284 0-.564-.007-.84.04.392-1.201 1.509-2.095 2.84-2.095.552 0 1-.457 1-1.009a3.008 3.008 0 0 1 3-3.005c.602 0 1.182.175 1.679.511a1 1 0 0 0 1.505-.5c.422-1.205 1.554-2.016 2.817-2.016s2.395.81 2.817 2.015a.997.997 0 0 0 .63.619c.294.1.618.053.875-.121a2.986 2.986 0 0 1 1.679-.514c1.654 0 3 1.346 3.002 2.938a2.385 2.385 0 0 0-.016.168.998.998 0 0 0 1.254 1.006 2.95 2.95 0 0 1 .759-.113c1.654 0 3 1.346 3 3 0 .243-.042.502-.131.815a1 1 0 0 0 .754 1.252A3.016 3.016 0 0 1 54 26.208c0 1.654-1.346 3-3 3zM42 4.207h2v2h-2zm4 0h2v2h-2zm4 0h2v2h-2zM4 50.208h2v2H4zm4 0h2v2H8zm4 0h2v2h-2z"/></svg>