<svg xmlns="http://www.w3.org/2000/svg" viewBox="0 0 496 496"><path d="M496 168v-64h-37.144a103.65 103.65 0 0 0-6.32-15.272l26.256-26.264L433.536 17.2l-26.264 26.256A102.753 102.753 0 0 0 392 37.144V0h-64v37.144a103.65 103.65 0 0 0-15.272 6.32L286.464 17.2 241.2 62.464l26.256 26.264a103.65 103.65 0 0 0-6.32 15.272H224v64h37.144a103.65 103.65 0 0 0 6.32 15.272l-26.256 26.264 45.256 45.248 26.256-26.248a104.986 104.986 0 0 0 15.28 6.32V272h64v-37.144a104.986 104.986 0 0 0 15.28-6.32l26.256 26.248 45.256-45.248-26.256-26.264a103.65 103.65 0 0 0 6.32-15.272H496zm-136 24a55.99 55.99 0 0 1-16.632-2.512 112.394 112.394 0 0 0-36.856-36.856A55.99 55.99 0 0 1 304 136c0-30.928 25.072-56 56-56s56 25.072 56 56-25.072 56-56 56z" fill="#f9ba48"/><path d="M424 136c0-35.288-28.712-64-64-64s-64 28.712-64 64c0 .728.136 1.44.16 2.168C281.408 131.672 265.136 128 248 128c-47.432 0-90.816 28.736-109.784 72H40c-22.056 0-40 17.944-40 40s17.944 40 40 40h92.608c7.064 25.56 22.184 47.984 43.392 63.92v16.48c-13.536 1.96-24 13.528-24 27.592 0 10.032 5.352 18.784 13.304 23.728C162 416.328 160 421.92 160 428c0 10.032 5.352 18.784 13.304 23.728C170 456.328 168 461.92 168 468c0 15.44 12.56 28 28 28h104c15.44 0 28-12.56 28-28 0-6.08-2-11.672-5.304-16.272C330.648 446.784 336 438.032 336 428c0-6.08-2-11.672-5.304-16.272C338.648 406.784 344 398.032 344 388c0-14.064-10.464-25.632-24-27.592v-16.48c30.136-22.648 48-58.192 48-95.92 0-17.136-3.672-33.408-10.168-48.16.728.016 1.44.152 2.168.152 35.288 0 64-28.712 64-64zm-292.152 80H208v16H104v-16h27.848zM40 264c-13.232 0-24-10.768-24-24s10.768-24 24-24h8v48h-8zm24 0v-48h24v48H64zm40 0v-16h104v16H104zm204 176H188c-6.616 0-12-5.384-12-12s5.384-12 12-12h120c6.616 0 12 5.384 12 12s-5.384 12-12 12zm-8 40H196c-6.616 0-12-5.384-12-12s5.384-12 12-12h104c6.616 0 12 5.384 12 12s-5.384 12-12 12zm28-92c0 6.616-5.384 12-12 12H180c-6.616 0-12-5.384-12-12s5.384-12 12-12h136c6.616 0 12 5.384 12 12zm-20.576-54.72L304 335.672V360H192v-24.328l-3.424-2.392A103.71 103.71 0 0 1 149.184 280H224v-80h-68.144c17.744-33.92 53.416-56 92.144-56 20.12 0 38.864 5.84 54.8 15.776a105.016 105.016 0 0 1 33.424 33.424C346.16 209.136 352 227.88 352 248c0 33.912-16.664 65.8-44.576 85.28zm5.968-185.768A48.336 48.336 0 0 1 312 136c0-26.472 21.528-48 48-48s48 21.528 48 48-21.528 48-48 48c-3.896 0-7.76-.472-11.512-1.392a120.86 120.86 0 0 0-35.096-35.096z" fill="#333"/></svg>