<svg xmlns="http://www.w3.org/2000/svg" viewBox="0 0 496 496"><path d="M240 320h-56v-32.816a138.062 138.062 0 0 1-7.968-3.336l-23.224 23.224-67.88-67.88 23.224-23.224a138.062 138.062 0 0 1-3.336-7.968H72v-96h32.816a138.062 138.062 0 0 1 3.336-7.968L84.928 80.808l67.88-67.88 23.224 23.224A138.062 138.062 0 0 1 184 32.816V0h56v96h-8c-35.288 0-64 28.712-64 64s28.712 64 64 64h8v96z" fill="#f9ba48"/><path d="M424 152c0-16.032-6.936-31.256-18.832-41.832A59.067 59.067 0 0 0 408 92c0-32.52-26.016-59.088-58.328-59.976C337.288 12.152 315.624 0 292 0c-14.8 0-28.904 4.736-40.816 13.688l9.624 12.784C269.912 19.616 280.704 16 292 16c19.36 0 37 10.68 46.04 27.864l2.392 4.56 6.088-.36c.488-.024.976-.064 1.48-.064 24.256 0 44 19.744 44 44 0 3.096-.328 6.144-.968 9.128C383.848 97.864 376.096 96 368 96c-30.872 0-56 25.128-56 56h16c0-22.056 17.944-40 40-40 8.56 0 16.648 2.712 23.512 7.72C401.84 127.264 408 139.264 408 152c0 10.384-3.984 20.224-11.216 27.728l-3.688 3.824 2.088 4.88c3.2 7.464 4.816 15.4 4.816 23.568 0 22.896-12.936 43.032-32.576 53.112.384-3.016.576-6.056.576-9.112 0-39.704-32.296-72-72-72v16c30.872 0 56 25.128 56 56 0 6.632-1.248 13.168-3.504 19.336C340.4 297.264 319.32 312 296 312c-12.84 0-24.944-4.264-34.992-12.328l-10.016 12.488C263.904 322.52 279.48 328 296 328c26.296 0 50.232-14.656 62.784-37.248l.216.12c.96-1.736 1.728-3.56 2.544-5.368.128-.28.304-.528.424-.808C393.984 275.08 416 245.76 416 212c0-8.624-1.432-17.04-4.248-25.088C419.688 177.008 424 164.8 424 152zm-88 236c0-15.44-12.56-28-28-28H172c-15.44 0-28 12.56-28 28 0 10.032 5.352 18.784 13.304 23.728C154 416.328 152 421.92 152 428c0 10.032 5.352 18.784 13.304 23.728C162 456.328 160 461.92 160 468c0 15.44 12.56 28 28 28h104c15.44 0 28-12.56 28-28 0-6.08-2-11.672-5.304-16.272C322.648 446.784 328 438.032 328 428c0-6.08-2-11.672-5.304-16.272C330.648 406.784 336 398.032 336 388zm-164-12h136c6.616 0 12 5.384 12 12s-5.384 12-12 12H172c-6.616 0-12-5.384-12-12s5.384-12 12-12zm128 64H180c-6.616 0-12-5.384-12-12s5.384-12 12-12h120c6.616 0 12 5.384 12 12s-5.384 12-12 12zm-8 40H188c-6.616 0-12-5.384-12-12s5.384-12 12-12h104c6.616 0 12 5.384 12 12s-5.384 12-12 12z" fill="#333"/></svg>