<svg xmlns="http://www.w3.org/2000/svg" viewBox="0 0 503.19 503.19"><path d="M458.101 292.8c-4.8-8-19.2-40.8-30.4-66.4 4-14.4 5.6-29.6 5.6-44.8 0-100.8-84-181.6-180-181.6s-190.4 109.6-157.6 204.8c14.4 42.4 25.6 73.6 36.8 96.8l-60 100.8c-10.4 20.8 11.2 37.6 32 48l80 41.6c20.8 10.4 55.2 19.2 65.6-.8l42.4-77.6c29.6 12.8 57.6 19.2 80 18.4 23.2-1.6 31.2-25.6 36-60 4.8 0 10.4 0 13.6-4.8 4.8-8.8-7.2-21.6-7.2-21.6s20-5.6 15.2-11.2c-4-4-7.2-21.6-8-26.4 7.2 0 16-.8 24-3.2 19.2-5.6 12-12 12-12z" fill="#1e74a5"/><path d="M458.101 292.8c-4.8-8-24-24.8-35.2-49.6 4-14.4 10.4-45.6 10.4-60.8 0-101.6-82.4-154.4-178.4-154.4s-191.2 82.4-158.4 177.6c14.4 42.4 25.6 73.6 36.8 96.8l-60.8 100c-10.4 20.8 11.2 37.6 32 48l80 41.6c20.8 10.4 55.2 19.2 65.6-.8l7.2-102.4c28.8 31.2 92.8 44 115.2 43.2 23.2-1.6 31.2-25.6 36-60 4.8 0 10.4 0 13.6-4.8 4.8-8.8-20-17.6-20-17.6s32.8-9.6 28.8-15.2c-4-4-18.4-20.8-19.2-26.4 7.2 0 27.2-1.6 35.2-4 18.4-4.8 11.2-11.2 11.2-11.2z" fill="#074568"/><path d="M302.901 140c0-61.6-58.4-111.2-129.6-111.2-71.2 0-129.6 50.4-129.6 111.2 0 36 20 68 51.2 88l10.4 43.2c0 34.4 28 60.8 61.6 60.8h13.6c34.4 0 61.6-26.4 61.6-60.8l10.4-44c30.4-20 50.4-51.2 50.4-87.2z" fill="#ffe000"/><path d="M302.901 140c0-61.6-58.4-93.6-129.6-93.6s-129.6 32.8-129.6 93.6c0 36 28.8 59.2 59.2 79.2l1.6 52c0 34.4 28 60.8 61.6 60.8h13.6c34.4 0 61.6-26.4 61.6-60.8l1.6-52c32-20.8 60-43.2 60-79.2z" fill="#ffc200"/><path d="M104.501 273.6v35.2c0 37.6 30.4 68.8 68.8 68.8 37.6 0 68.8-30.4 68.8-68.8v-35.2h-137.6z" fill="#4396bf"/><path d="M104.501 308.8c0 37.6 30.4 68.8 68.8 68.8 37.6 0 68.8-30.4 68.8-68.8" fill="#1e74a5"/><g fill="#f9f4bd"><path d="M173.301 272c-2.4 0-4-1.6-4-4v-89.6c0-.8-.8-59.2-36.8-67.2-7.2-1.6-12 0-16 4-6.4 7.2-6.4 20.8-1.6 34.4 5.6 16 17.6 26.4 32.8 30.4v-20c0-2.4 1.6-4 4-4s4 1.6 4 4v24.8c0 1.6-.8 2.4-1.6 3.2s-2.4.8-3.2.8c-20-2.4-36.8-16.8-44-36.8-6.4-16.8-4.8-33.6 3.2-43.2 5.6-6.4 14.4-8.8 24-6.4 43.2 9.6 44 72.8 44 76V268c-.8 2.4-2.4 4-4.8 4z"/><path d="M173.301 272c2.4 0 4-1.6 4-4v-89.6c0-.8.8-59.2 36.8-67.2 7.2-1.6 12 0 16 4 6.4 7.2 6.4 20.8 1.6 34.4-5.6 16-17.6 26.4-32.8 30.4v-20c0-2.4-1.6-4-4-4s-4 1.6-4 4v24.8c0 1.6.8 2.4 1.6 3.2s2.4.8 3.2.8c20-2.4 36.8-16.8 44-36.8 6.4-16.8 4.8-33.6-3.2-43.2-5.6-6.4-14.4-8.8-24-6.4-43.2 9.6-44 72.8-44 76V268c.8 2.4 2.4 4 4.8 4z"/><path d="M186.901 207.2c0 1.6-1.6 3.2-3.2 3.2h-20c-1.6 0-3.2-1.6-3.2-3.2s1.6-3.2 3.2-3.2h20c1.6-.8 3.2.8 3.2 3.2zm0 16.8c0 1.6-1.6 3.2-3.2 3.2h-20c-1.6 0-3.2-1.6-3.2-3.2s1.6-3.2 3.2-3.2h20c1.6 0 3.2 1.6 3.2 3.2zm0 16.8c0 1.6-1.6 3.2-3.2 3.2h-20c-1.6 0-3.2-1.6-3.2-3.2s1.6-3.2 3.2-3.2h20c1.6 0 3.2 1.6 3.2 3.2z"/><circle cx="173.301" cy="83.2" r="5.6"/></g><g fill="#6fcaef"><path d="M234.901 290.4c0 .8-.8 1.6-1.6 1.6h-119.2c-.8 0-1.6-.8-1.6-1.6s.8-1.6 1.6-1.6h119.2c.8 0 1.6.8 1.6 1.6zm0 12c0 .8-.8 1.6-1.6 1.6h-119.2c-.8 0-1.6-.8-1.6-1.6s.8-1.6 1.6-1.6h119.2c.8 0 1.6.8 1.6 1.6zm0 12c0 .8-.8 1.6-1.6 1.6h-119.2c-.8 0-1.6-.8-1.6-1.6s.8-1.6 1.6-1.6h119.2c.8 0 1.6.8 1.6 1.6zm0 12.8c0 .8-.8 1.6-1.6 1.6h-119.2c-.8 0-1.6-.8-1.6-1.6s.8-1.6 1.6-1.6h119.2c.8 0 1.6 0 1.6 1.6zm-8.8 12c0 .8-.8 1.6-1.6 1.6h-102.4c-.8 0-1.6-.8-1.6-1.6s.8-1.6 1.6-1.6h103.2c.8 0 .8.8.8 1.6z"/><circle cx="146.901" cy="354.4" r="2.4"/><circle cx="164.501" cy="354.4" r="2.4"/><circle cx="182.101" cy="354.4" r="2.4"/><circle cx="199.701" cy="354.4" r="2.4"/></g></svg>