<svg xmlns="http://www.w3.org/2000/svg" viewBox="0 0 512 512"><path d="M488.727 93.091H23.273v314.182c0 6.412 5.225 11.636 11.636 11.636h442.182c6.412 0 11.636-5.225 11.636-11.636V93.091z" fill="#ebeef7"/><path d="M488.727 34.909c0-6.412-5.225-11.636-11.636-11.636H34.909c-6.412 0-11.636 5.225-11.636 11.636v34.909h465.455V34.909z" fill="#afc3d7"/><g fill="#004463"><path d="M477.091 0H34.909C15.663 0 0 15.663 0 34.909v372.364c0 19.247 15.663 34.909 34.909 34.909h442.182c19.247 0 34.909-15.663 34.909-34.909V34.909C512 15.663 496.337 0 477.091 0zM23.273 34.909c0-6.412 5.225-11.636 11.636-11.636h442.182c6.412 0 11.636 5.225 11.636 11.636v34.909H23.273V34.909zm465.454 372.364c0 6.412-5.225 11.636-11.636 11.636H34.909c-6.412 0-11.636-5.225-11.636-11.636V93.091h465.455v314.182z"/><circle cx="58.182" cy="46.545" r="11.636"/><circle cx="104.727" cy="46.545" r="11.636"/><circle cx="151.273" cy="46.545" r="11.636"/><path d="M325.818 325.818c-2.979 0-5.958-1.14-8.227-3.409a11.623 11.623 0 0 1 0-16.454l38.319-38.319A16.582 16.582 0 0 0 360.727 256a16.58 16.58 0 0 0-4.817-11.636l-38.319-38.319a11.623 11.623 0 0 1 0-16.454 11.623 11.623 0 0 1 16.454 0l38.319 38.319C379.869 235.415 384 245.388 384 256c0 10.612-4.131 20.596-11.636 28.09l-38.319 38.319a11.604 11.604 0 0 1-8.227 3.409zm-139.636 0c-2.979 0-5.958-1.14-8.227-3.409l-38.319-38.319C132.131 276.585 128 266.612 128 256c0-10.612 4.131-20.596 11.636-28.09l38.319-38.319a11.623 11.623 0 0 1 16.454 0 11.623 11.623 0 0 1 0 16.454l-38.319 38.319A16.582 16.582 0 0 0 151.273 256a16.58 16.58 0 0 0 4.817 11.636l38.319 38.319a11.623 11.623 0 0 1 0 16.454 11.604 11.604 0 0 1-8.227 3.409zm46.545 23.273c-1.059 0-2.141-.151-3.2-.454-6.179-1.769-9.751-8.204-7.994-14.383l46.545-162.909c1.769-6.167 8.204-9.751 14.383-7.994 6.179 1.769 9.751 8.204 7.994 14.383L243.91 340.643c-1.455 5.12-6.109 8.448-11.183 8.448z"/></g><circle cx="407.273" cy="407.273" r="81.455" fill="#8ec861"/><path d="M407.273 512c-57.74 0-104.727-46.988-104.727-104.727s46.988-104.727 104.727-104.727S512 349.533 512 407.273 465.012 512 407.273 512zm0-186.182c-44.916 0-81.455 36.538-81.455 81.455s36.538 81.455 81.455 81.455 81.455-36.538 81.455-81.455-36.539-81.455-81.455-81.455z" fill="#004463"/><path d="M395.636 442.182c-2.979 0-5.958-1.14-8.227-3.409L364.137 415.5a11.623 11.623 0 0 1 0-16.454 11.623 11.623 0 0 1 16.454 0l15.046 15.046 38.319-38.319a11.623 11.623 0 0 1 16.454 0 11.623 11.623 0 0 1 0 16.454l-46.545 46.545a11.613 11.613 0 0 1-8.229 3.41z" fill="#fff"/></svg>