<svg xmlns="http://www.w3.org/2000/svg" viewBox="0 0 512 512"><path d="M504.163 135.837v240.327c0 20.198-16.374 36.571-36.571 36.571H80.98v15.673c0 20.198-16.374 36.571-36.571 36.571-10.094 0-19.247-4.096-25.861-10.71-6.614-6.614-10.71-15.768-10.71-25.861V188.082c0-20.198 16.374-36.571 36.571-36.571H431.02v-15.673c0-20.198 16.374-36.571 36.571-36.571 10.094 0 19.247 4.096 25.861 10.71 6.615 6.613 10.711 15.766 10.711 25.86z" fill="#fff"/><path d="M80.98 188.082v240.327c0 20.198-16.374 36.571-36.571 36.571-10.094 0-19.247-4.096-25.861-10.71-6.614-6.614-10.71-15.768-10.71-25.861V188.082c0 20.198 16.374 36.571 36.571 36.571S80.98 208.28 80.98 188.082zm350.04 188.081V135.837c0-20.198 16.374-36.571 36.571-36.571 10.094 0 19.247 4.096 25.861 10.71 6.614 6.614 10.71 15.768 10.71 25.861v240.327c0-20.198-16.374-36.571-36.571-36.571-20.197-.001-36.571 16.372-36.571 36.57z" fill="#00ddc2"/><path fill="#ff5252" d="M240.327 47.02h31.347v41.796h-31.347z"/><path d="M188.082 333.322h15.673L256 188.082h-36.571zm135.836 0h-15.673L256 188.082h36.571z" fill="#00ddc2"/><circle cx="256" cy="151.51" r="36.571" fill="#fff"/><circle cx="256" cy="151.51" r="13.061" fill="#ff5252"/><path d="M498.995 104.434c-8.387-8.387-19.541-13.006-31.403-13.006-24.487 0-44.408 19.921-44.408 44.408h15.673c0-15.845 12.891-28.735 28.735-28.735 7.677 0 14.894 2.988 20.319 8.415 5.427 5.427 8.416 12.643 8.416 20.32v206.507c-7.751-6.596-17.783-10.589-28.735-10.589-24.487 0-44.408 19.921-44.408 44.408h15.673c0-15.845 12.891-28.735 28.735-28.735s28.735 12.89 28.735 28.735c0 15.845-12.891 28.735-28.735 28.735H101.878v15.673h365.714c24.487 0 44.408-19.921 44.408-44.408V135.837c0-11.864-4.618-23.016-13.005-31.403z"/><path d="M44.408 232.49c24.487 0 44.408-19.921 44.408-44.408H73.143c0 15.845-12.89 28.735-28.735 28.735s-28.735-12.89-28.735-28.735 12.89-28.735 28.735-28.735H198.53v-15.673H44.408C19.921 143.673 0 163.594 0 188.082v240.327c0 11.864 4.618 23.016 13.006 31.402 8.386 8.387 19.539 13.006 31.402 13.006 24.487 0 44.408-19.921 44.408-44.408H73.143c0 15.845-12.89 28.735-28.735 28.735-7.677 0-14.893-2.988-20.32-8.415-5.426-5.427-8.415-12.643-8.415-20.32V221.901c7.753 6.595 17.784 10.589 28.735 10.589zM256 195.918c21.812 0 39.988-15.811 43.702-36.571h110.421v-15.673H299.702c-3.258-18.215-17.65-32.607-35.865-35.865V96.653h15.673V39.184h-47.02v57.469h15.673v11.155c-20.76 3.714-36.571 21.89-36.571 43.702 0 24.487 19.921 44.408 44.408 44.408zm-7.837-141.061h15.673V80.98h-15.673V54.857zM256 122.776c15.844 0 28.735 12.89 28.735 28.735S271.844 180.245 256 180.245c-15.845 0-28.735-12.89-28.735-28.735s12.89-28.734 28.735-28.734zm-68.345 225.903l-11.083 11.082c21.898 21.898 50.663 32.847 79.427 32.847s57.529-10.949 79.428-32.847l-11.083-11.082c-37.684 37.685-99.002 37.685-136.689 0z"/></svg>