<svg xmlns="http://www.w3.org/2000/svg" viewBox="0 0 395.507 395.507"><path d="M389.672 167.434c0 46.998-38.335 85.333-85.333 85.333h-33.358c14.804-16.097 22.885-37.689 22.885-61.22 0-54.432-45.77-98.909-101.366-95.806-49.455 2.457-89.665 43.895-90.893 93.35-.646 23.467 7.434 45.123 20.364 61.802.517.646.97 1.228 1.422 1.875H91.652c-46.998 0-85.333-38.335-85.333-85.333s37.689-84.687 84.687-85.333c14.222-41.438 52.558-72.339 98.263-75.442 3.103-.646 5.56-.646 8.663-.646h8.663c15.451 1.228 30.255 5.56 43.248 12.347 12.347-7.434 26.57-12.347 42.02-12.347 42.02 0 76.024 34.004 76.024 76.671 0 8.663-1.228 16.679-3.685 24.113 15.579 15.513 25.47 37.17 25.47 60.636z" fill="#e1e6e9"/><path d="M293.866 191.547c0-54.368-45.77-98.909-101.366-95.806-49.455 2.457-89.665 43.895-90.893 93.349-.646 23.467 7.434 45.123 20.428 61.802 16.097 20.428 25.988 45.77 25.988 72.339v41.438h98.263v-40.792c0-25.988 8.016-51.329 24.76-71.111 14.804-16.095 22.82-37.687 22.82-61.219zm-92.121 197.819h-6.788a22.155 22.155 0 0 1-22.238-22.238v-2.457h51.329v2.457c-.647 12.347-10.538 22.238-22.303 22.238z" fill="#fff"/><path d="M371.183 105.051c1.875-7.434 3.103-14.804 3.103-22.238 0-45.77-37.107-82.812-82.23-82.812-14.869 0-29.673 4.331-42.667 11.766-13.576-6.206-27.798-9.891-42.02-11.119C201.163 0 195.021 0 189.462.646 143.11 3.749 103.547 33.422 86.868 76.089 38.577 79.063.242 119.273.242 167.434c0 50.683 40.792 91.475 91.475 91.475h29.026c10.537 14.869 17.325 30.319 20.428 46.998h-8.016v12.347h9.244v13.576h-9.891v12.347h9.891V358.4h-9.891v12.347h34.004c1.875 14.222 13.576 24.76 27.798 24.76h6.788c14.222 0 25.988-11.119 27.798-24.76H262.9V358.4h-9.891v-13.576h9.891v-12.347h-9.891v-13.576h9.891v-12.347h-8.598c2.457-17.325 9.891-34.004 19.782-46.998h29.673c50.683 0 91.475-40.792 91.475-91.475.646-24.113-8.017-45.77-24.049-63.03zM201.745 383.224h-6.788c-7.434 0-14.222-5.56-15.451-12.347h37.689c-1.81 6.788-8.016 12.347-15.45 12.347zm38.982-24.759h-85.333v-13.576h85.915v13.576h-.582zm0-25.924h-85.333v-13.576h85.915c-.001 1.164-.582 13.576-.582 13.576zm1.874-26.634h-89.083c-3.103-21.01-11.766-40.792-25.988-58.699-12.994-16.679-19.782-37.107-19.135-58.117 1.228-46.352 38.335-84.687 84.687-87.143 51.911-2.457 94.578 38.335 94.578 89.665 0 21.01-7.434 41.438-21.01 57.471-12.93 16.031-21.592 35.813-24.049 56.823zm61.802-59.345h-20.428c10.537-16.097 16.097-35.232 16.097-55.014 0-58.117-48.808-105.115-107.572-102.012-52.558 3.103-95.224 46.352-96.453 98.909-.646 20.428 4.913 40.792 16.097 58.117H91.716a78.88 78.88 0 0 1-79.127-79.127c0-43.248 35.232-78.481 78.481-79.127h4.331l1.228-4.331c14.222-40.21 50.683-68.59 93.349-71.693 3.103 0 32.776 0 56.889 11.766l3.103 1.875 3.103-1.875c11.766-7.434 24.76-11.766 38.917-11.766 38.917 0 70.465 31.547 70.465 70.465 0 7.434-1.228 14.804-3.685 22.238l-1.228 3.685 2.457 2.457c15.451 14.804 23.467 35.232 23.467 56.242a78.799 78.799 0 0 1-79.063 79.191z" fill="#345"/><path d="M198.06 260.202c-37.689 0-68.008-30.319-68.008-68.008s30.319-68.008 68.008-68.008 68.008 30.319 68.008 68.008c0 37.107-30.319 68.008-68.008 68.008z" fill="#fdbf5e"/><path d="M193.147 62.966h12.347v13.576h-12.347zm-53.052 13.539l6.788 11.756-10.693 6.174-6.787-11.756zM90.72 121.088l11.756 6.787-6.173 10.693-11.756-6.788zm-21.242 63.09h13.576v12.347H69.478zm242.941 0h13.576v12.347h-13.576zm-6.773-63.678l6.172 10.694-11.758 6.786-6.172-10.694zm-50.067-44.254l10.694 6.173-6.786 11.758-10.695-6.173zM157.268 184.76h12.347v13.576h-12.347zm34.586 0h12.347v13.576h-12.347zm34.65 0h12.347v13.576h-12.347z" fill="#345"/></svg>