<svg xmlns="http://www.w3.org/2000/svg" viewBox="0 0 512 512"><ellipse cx="256" cy="300" rx="208" ry="204" fill="#dcddde"/><path d="M367.056 306.432c-9.792-4.432-24.024-9.64-39.056-11.192v-49.584c21.632 10.544 35.464 34.816 39.056 60.776zm-222.112 0c3.592-25.96 17.424-50.224 39.056-60.784v49.568c-15.032 1.56-29.272 6.776-39.056 11.216zM200 304V168c0-17.28 2.248-33.288 5.792-48h100.432c3.536 14.704 5.776 30.704 5.776 48v136H200zm24 32v-16h64v16h-56z" fill="#fff"/><path d="M320 312V168c0-96-64-160-64-160v304h64z" fill="#dcddde"/><circle cx="256" cy="168" r="24" fill="#53b7e8"/><path d="M435.2 403.04c-8.56 14.32-19.04 27.76-31.36 40.08a206.156 206.156 0 0 1-30.56 25.2c-70.32 47.76-163.44 47.6-233.6-.48-10.56-7.12-20.56-15.36-29.92-24.72-12.72-12.72-23.52-26.72-32.24-41.52C85.6 386.4 101.6 376 120 376c21.92 0 40.4 14.8 46.16 34.96C173.2 399.6 185.68 392 200 392c19.36 0 35.52 13.76 39.2 32h.8v-80h32v80h.8c3.68-18.24 19.84-32 39.2-32 14.32 0 26.8 7.6 33.84 18.96C351.52 390.8 370 376 392 376c18.96 0 35.36 11.04 43.2 27.04z" fill="#ffd768"/><path fill="#dcddde" d="M256 320h32v16h-32z"/><g fill="#0c3847"><path d="M405.656 146.344L400 140.688 388.688 152l5.656 5.656C434.68 198 456 245.832 456 296c0 32.224-7.616 63.248-21.912 91.112C423.6 375.104 408.48 368 392 368c-20.208 0-38.584 11.008-48.424 27.952C334.968 388.32 323.84 384 312 384c-12.136 0-23.424 4.592-32 12.248V352h24v-32h24v-8.624c22.336 2.808 43.544 15.28 43.864 15.48L384 334.152V320c0-39.048-20.544-79.112-56-91.792V168c0-98.184-63.632-159.64-66.344-162.344L256 0l-5.656 5.656C247.632 8.36 184 69.816 184 168v60.208c-35.456 12.68-56 52.744-56 91.792l.008 14.152 12.128-7.296c.328-.2 21.536-12.688 43.864-15.488V320h24v32h24v44.248C223.424 388.592 212.136 384 200 384c-11.856 0-22.992 4.328-31.6 11.976C158.512 379.016 140.144 368 120 368c-16.36 0-31.536 7.176-42.056 19.176C63.624 359.296 56 328.24 56 295.992c0-50.16 21.32-97.992 61.656-138.336l5.656-5.656L112 140.688l-5.656 5.656C62.944 189.752 40 241.504 40 295.992c0 57.704 22.472 111.944 63.264 152.744C145.376 490.84 200.688 512 256 512s110.624-21.16 152.736-63.264C449.528 407.936 472 353.696 472 296c0-54.496-22.944-106.248-66.344-149.656zm-38.6 160.088c-9.792-4.432-24.024-9.64-39.056-11.192v-49.584c21.632 10.544 35.464 34.816 39.056 60.776zM256.008 23.296c10.408 12.288 32.664 40.352 45.768 80.704h-91.512c13.112-40.288 35.352-68.392 45.744-80.704zM144.944 306.432c3.592-25.96 17.424-50.224 39.056-60.784v49.568c-15.032 1.56-29.272 6.776-39.056 11.216zM200 304V168c0-17.28 2.248-33.288 5.792-48h100.432c3.536 14.704 5.776 30.704 5.776 48v136H200zm24 32v-16h64v16h-64zm173.424 101.424c-77.984 77.976-204.864 77.976-282.84 0-10.776-10.776-20.12-22.6-28.048-35.192C93.92 390.928 106.392 384 120 384c17.744 0 33.56 11.992 38.472 29.16l4.968 17.392 9.52-15.376c5.888-9.504 16-15.176 27.04-15.176 15.176 0 28.368 10.76 31.352 25.576l1.304 6.424H248v-80h16v80h15.344l1.296-6.424C283.632 410.76 296.824 400 312 400c11.04 0 21.152 5.672 27.04 15.168l9.576 15.456 4.928-17.496C358.368 395.976 374.184 384 392 384c13.704 0 26.112 6.872 33.488 18.2-7.928 12.6-17.28 24.432-28.064 35.224z"/><path d="M256 136c-17.648 0-32 14.352-32 32s14.352 32 32 32 32-14.352 32-32-14.352-32-32-32zm0 48c-8.824 0-16-7.176-16-16s7.176-16 16-16 16 7.176 16 16-7.176 16-16 16zm96-120h16V48h16V32h-16V16h-16v16h-16v16h16zM96 104h16V88h16V72h-16V56H96v16H80v16h16zm328 24h16v-16h16V96h-16V80h-16v16h-16v16h16zm-48 56v8h-8v16h8v8h16v-8h8v-16h-8v-8zm-232-8h16v-8h8v-16h-8v-8h-16v8h-8v16h8zm0-144h16v-8h8V8h-8V0h-16v8h-8v16h8z"/></g><path d="M256.008 23.296c10.408 12.288 32.664 40.352 45.768 80.704h-91.512c13.112-40.288 35.352-68.392 45.744-80.704z" fill="#f37053"/></svg>