<svg xmlns="http://www.w3.org/2000/svg" viewBox="0 0 511.999 511.999"><path d="M507.629 82.852a8.776 8.776 0 0 0-10.104.916c-17.439 14.891-39.687 23.092-62.643 23.092a97.223 97.223 0 0 1-20.136-2.108 8.774 8.774 0 1 0-10.101 11.494l20.124 57.248a8.779 8.779 0 0 0 8.278 5.868c.919 0 1.854-.145 2.772-.452 39.193-13.045 68.324-46.317 76.025-86.83a8.774 8.774 0 0 0-4.215-9.228z" fill="#fae77d"/><path d="M490.77 44.04a8.775 8.775 0 0 0-9.954 1.967 96.54 96.54 0 0 1-59.886 29.516 97.32 97.32 0 0 1-17.47.261 8.773 8.773 0 0 0-8.939 11.661l19.676 55.975a8.78 8.78 0 0 0 8.279 5.866 8.775 8.775 0 0 0 3.35-.665c19.254-7.953 35.981-21.076 48.374-37.948 12.472-16.98 19.985-37 21.725-57.896a8.769 8.769 0 0 0-5.155-8.737z" fill="#edd239"/><path d="M447.247 78.702c-20.599-28.966-50.382-44.277-86.133-44.277-62.906 0-114.083 51.177-114.083 114.083 0 2.367.075 4.748.224 7.129a221.077 221.077 0 0 1-26.84 1.647c-72.23 0-139.838-35.583-180.853-95.185-3.741-5.433-12.22-4.799-15.114 1.122-17.456 35.719-17.447 75.076.022 113.817a178.042 178.042 0 0 0 10.405 19.641l-19.532-8.79c-6.287-2.829-13.411 2.692-12.251 9.481 8.737 51.12 38.215 80.411 61.404 95.981a155.338 155.338 0 0 0 6.847 4.342H58.116c-7.16 0-11.334 8.527-6.913 14.18a238.135 238.135 0 0 0 81.01 66.243c-37.482 23.372-80.106 37.611-124.2 41.383-3.545.303-6.675 2.862-7.673 6.278-1.028 3.518.337 7.477 3.322 9.608 38.276 27.324 96.466 42.19 161.526 42.19 16.634 0 33.718-.972 51.032-2.955 57.851-6.628 119.277-34.325 164.316-74.086 28.828-25.45 51.479-55.81 67.323-90.234 18.141-39.415 27.339-84.254 27.339-133.271 0-38.06-9.927-72.98-27.951-98.327z" fill="#63c4f2"/><path d="M465.335 114.723a207.637 207.637 0 0 1 2.403 31.61c0 49.017-9.198 93.856-27.339 133.271-15.844 34.425-38.495 64.785-67.323 90.234-45.039 39.761-106.465 67.457-164.316 74.086-17.314 1.984-34.398 2.955-51.032 2.955-53.249 0-101.888-9.964-138.781-28.56-3.635.456-7.277.868-10.934 1.18-3.545.303-6.675 2.862-7.673 6.278-1.028 3.518.337 7.477 3.322 9.608 38.276 27.324 96.466 42.19 161.526 42.19 16.634 0 33.718-.972 51.032-2.955 57.851-6.628 119.277-34.325 164.316-74.086 28.828-25.45 51.479-55.81 67.323-90.234 18.141-39.415 27.339-84.254 27.339-133.271 0-22.282-3.426-43.467-9.863-62.306z" fill="#3cafe6"/><path d="M361.115 87.08c-14.517 0-26.327 11.81-26.327 26.327s11.81 26.327 26.327 26.327 26.327-11.81 26.327-26.327-11.81-26.327-26.327-26.327z" fill="#fff"/></svg>